# xmcd
#
# Track frame offsets: 
#        150
#        16569
#        36302
#        53327
#        73600
#        94039
#        114976
#        135785
#        154659
#        174391
#        194423
#        215176
#
# Disc length: 3045 seconds
#
# Revision: 0
# Processed by: cddbd v1.5.2PL0 Copyright (c) Steve Scherf et al.
# Submitted via: ExactAudioCopy v0.95a5
#
DISCID=930be30c
DTITLE=Franklin Thompson - Cornhusker Kid
DYEAR=2011
DGENRE=R&B
TTITLE0=Welcome To The Big 10
TTITLE1=Magic Man (Husker Roll Call Mix)
TTITLE2=Lil' Red's Big 10 Debut
TTITLE3=Cornhusker Kid
TTITLE4=Legendary
TTITLE5=Over The Top
TTITLE6=Husker Slide
TTITLE7=Forever Husker Fan
TTITLE8=Magic Man (Don't Drop It Like It's Hot Mix)
TTITLE9=Magic Man (Overcomer's Remix)
TTITLE10=To Sir With Love (A Dedication To Dr. Tom Osborne)
TTITLE11=United We Stand (A Dedication To The Big 10)
EXTD=
EXTT0=
EXTT1=
EXTT2=
EXTT3=
EXTT4=
EXTT5=
EXTT6=
EXTT7=
EXTT8=
EXTT9=
EXTT10=
EXTT11=
PLAYORDER=
